<svg width="349.8125px" height="132.8px" xmlns="http://www.w3.org/2000/svg" viewBox="75.09375 8.599999999999994 349.8125 132.8" style="background: rgba(0, 0, 0, 0);" preserveAspectRatio="xMidYMid"><defs><filter id="editing-extrusion" x="-100%" y="-100%" width="300%" height="300%"><feFlood result="color1" flood-color="#ffffff"></feFlood><feConvolveMatrix order="9,9" divisor="1" kernelMatrix="1 0 0 0 0 0 0 0 0 0 1 0 0 0 0 0 0 0 0 0 1 0 0 0 0 0 0 0 0 0 1 0 0 0 0 0 0 0 0 0 1 0 0 0 0 0 0 0 0 0 1 0 0 0 0 0 0 0 0 0 1 0 0 0 0 0 0 0 0 0 1 0 0 0 0 0 0 0 0 0 1" in="SourceAlpha" result="extrude"></feConvolveMatrix><feComposite in="color1" in2="extrude" result="comp-extrude" operator="in"></feComposite><feOffset dx="4.5" dy="4.5" in="comp-extrude" result="offset-extrude"></feOffset><feMerge><feMergeNode in="offset-extrude"></feMergeNode><feMergeNode in="SourceGraphic"></feMergeNode></feMerge></filter></defs><g filter="url(#editing-extrusion)"><g transform="translate(129.73498901724815, 103.05000114440918)"><path d="M31.33-47.54L37.95-47.54L22.77 0L15.73 0L0.41-47.54L7.45-47.54L19.39-7.11L31.33-47.54ZM44.92-36.36L51.27-36.36L51.27 0L44.92 0L44.92-36.36ZM48.02-53.82L48.02-53.82Q50.03-53.82 51.27-52.58L51.27-52.58L51.27-52.58Q52.51-51.34 52.51-49.47L52.51-49.47L52.51-49.47Q52.51-47.61 51.27-46.40L51.27-46.40L51.27-46.40Q50.03-45.20 48.02-45.20L48.02-45.20L48.02-45.20Q46.09-45.20 44.85-46.40L44.85-46.40L44.85-46.40Q43.61-47.61 43.61-49.47L43.61-49.47L43.61-49.47Q43.61-51.34 44.85-52.58L44.85-52.58L44.85-52.58Q46.09-53.82 48.02-53.82L48.02-53.82ZM81.49-37.19L81.49-37.19Q86.46-37.19 89.25-34.22L89.25-34.22L89.25-34.22Q92.05-31.26 92.05-26.08L92.05-26.08L92.05 0L85.70 0L85.70-25.19L85.70-25.19Q85.70-29.05 84.25-30.64L84.25-30.64L84.25-30.64Q82.80-32.22 79.97-32.22L79.97-32.22L79.97-32.22Q77.07-32.22 74.87-30.57L74.87-30.57L74.87-30.57Q72.66-28.91 70.73-25.81L70.73-25.81L70.73 0L64.38 0L64.38-36.36L69.83-36.36L70.38-30.98L70.38-30.98Q72.31-33.88 75.18-35.54L75.18-35.54L75.18-35.54Q78.04-37.19 81.49-37.19L81.49-37.19ZM104.81-36.36L111.16-36.36L111.16 0L104.81 0L104.81-36.36ZM99.70-47.40L113.44-55.27L116.27-49.96L101.64-44.02L99.70-47.40ZM137.52-37.19L137.52-37.19Q140.76-37.19 143.45-36.26L143.45-36.26L143.45-36.26Q146.14-35.33 148.63-33.26L148.63-33.26L145.59-29.26L145.59-29.26Q143.66-30.64 141.83-31.29L141.83-31.29L141.83-31.29Q140.00-31.95 137.79-31.95L137.79-31.95L137.79-31.95Q133.38-31.95 130.93-28.43L130.93-28.43L130.93-28.43Q128.48-24.91 128.48-18.01L128.48-18.01L128.48-18.01Q128.48-11.11 130.89-7.83L130.89-7.83L130.89-7.83Q133.31-4.55 137.79-4.55L137.79-4.55L137.79-4.55Q139.93-4.55 141.73-5.21L141.73-5.21L141.73-5.21Q143.52-5.87 145.73-7.31L145.73-7.31L148.63-3.17L148.63-3.17Q143.66 0.83 137.52 0.83L137.52 0.83L137.52 0.83Q130.13 0.83 125.89-4.14L125.89-4.14L125.89-4.14Q121.65-9.11 121.65-17.87L121.65-17.87L121.65-17.87Q121.65-23.67 123.58-28.01L123.58-28.01L123.58-28.01Q125.51-32.36 129.06-34.78L129.06-34.78L129.06-34.78Q132.62-37.19 137.52-37.19L137.52-37.19ZM157.25-36.36L163.60-36.36L163.60 0L157.25 0L157.25-36.36ZM160.36-53.82L160.36-53.82Q162.36-53.82 163.60-52.58L163.60-52.58L163.60-52.58Q164.84-51.34 164.84-49.47L164.84-49.47L164.84-49.47Q164.84-47.61 163.60-46.40L163.60-46.40L163.60-46.40Q162.36-45.20 160.36-45.20L160.36-45.20L160.36-45.20Q158.42-45.20 157.18-46.40L157.18-46.40L157.18-46.40Q155.94-47.61 155.94-49.47L155.94-49.47L155.94-49.47Q155.94-51.34 157.18-52.58L157.18-52.58L157.18-52.58Q158.42-53.82 160.36-53.82L160.36-53.82ZM203.76-36.36L203.76 0L198.31 0L197.82-5.66L197.82-5.66Q195.75-2.28 193.06-0.72L193.06-0.72L193.06-0.72Q190.37 0.83 186.51 0.83L186.51 0.83L186.51 0.83Q181.75 0.83 179.06-2.07L179.06-2.07L179.06-2.07Q176.36-4.97 176.36-10.28L176.36-10.28L176.36-36.36L182.71-36.36L182.71-10.97L182.71-10.97Q182.71-7.25 184.02-5.69L184.02-5.69L184.02-5.69Q185.33-4.14 188.30-4.14L188.30-4.14L188.30-4.14Q193.61-4.14 197.41-10.42L197.41-10.42L197.41-36.36L203.76-36.36ZM226.73-37.19L226.73-37.19Q230.46-37.19 233.43-36.16L233.43-36.16L233.43-36.16Q236.39-35.12 239.09-33.05L239.09-33.05L236.39-29.05L236.39-29.05Q233.91-30.64 231.67-31.40L231.67-31.40L231.67-31.40Q229.43-32.15 226.94-32.15L226.94-32.15L226.94-32.15Q223.84-32.15 222.04-30.88L222.04-30.88L222.04-30.88Q220.25-29.60 220.25-27.39L220.25-27.39L220.25-27.39Q220.25-25.19 221.94-23.94L221.94-23.94L221.94-23.94Q223.63-22.70 228.05-21.53L228.05-21.53L228.05-21.53Q234.12-20.01 237.12-17.39L237.12-17.39L237.12-17.39Q240.12-14.77 240.12-10.21L240.12-10.21L240.12-10.21Q240.12-4.83 235.95-2.00L235.95-2.00L235.95-2.00Q231.77 0.83 225.77 0.83L225.77 0.83L225.77 0.83Q217.49 0.83 212.04-3.93L212.04-3.93L215.42-7.80L215.42-7.80Q220.04-4.28 225.63-4.28L225.63-4.28L225.63-4.28Q229.22-4.28 231.32-5.76L231.32-5.76L231.32-5.76Q233.43-7.25 233.43-9.80L233.43-9.80L233.43-9.80Q233.43-11.66 232.67-12.80L232.67-12.80L232.67-12.80Q231.91-13.94 230.05-14.80L230.05-14.80L230.05-14.80Q228.18-15.66 224.60-16.63L224.60-16.63L224.60-16.63Q218.80-18.15 216.21-20.70L216.21-20.70L216.21-20.70Q213.62-23.25 213.62-27.19L213.62-27.19L213.62-27.19Q213.62-30.02 215.31-32.33L215.31-32.33L215.31-32.33Q217.01-34.64 220.01-35.91L220.01-35.91L220.01-35.91Q223.01-37.19 226.73-37.19L226.73-37.19Z" fill="#000000"></path></g></g><style>text {
  font-size: 64px;
  font-family: Arial Black;
  dominant-baseline: central;
  text-anchor: middle;
}</style></svg>